<svg xmlns="http://www.w3.org/2000/svg" xmlns:xlink="http://www.w3.org/1999/xlink" width="300" zoomAndPan="magnify" viewBox="0 0 224.87999 225" height="300" preserveAspectRatio="xMidYMid meet" version="1.0"><defs><clipPath id="df922cf901"><path d="M 0 67.664062 L 224.761719 67.664062 L 224.761719 157.617188 L 0 157.617188 Z M 0 67.664062 " clip-rule="nonzero"/></clipPath></defs><g clip-path="url(#df922cf901)"><path fill="#40594a" d="M 224.878906 116.707031 L 224.109375 125.929688 L 219.488281 130.15625 C 214.914062 134.382812 210.386719 138.699219 205.992188 143.015625 L 203.410156 155.144531 L 200.148438 154.464844 C 197.792969 153.964844 195.347656 153.464844 192.675781 152.917969 L 189.414062 152.28125 L 189.371094 152.238281 L 182.984375 151.148438 C 180.128906 150.648438 177.230469 150.191406 174.332031 149.738281 L 172.613281 149.464844 L 171.84375 147.921875 C 171.117188 146.421875 170.390625 144.921875 169.621094 143.46875 L 168.898438 148.964844 L 165.589844 148.511719 C 163.234375 148.195312 160.789062 147.921875 158.074219 147.601562 L 155.898438 147.375 L 154.269531 147.195312 C 146.976562 146.46875 139.546875 145.875 132.210938 145.511719 L 128.902344 145.332031 C 126.957031 145.285156 124.011719 145.238281 120.796875 145.238281 L 120.796875 145.285156 L 118.578125 145.238281 C 116.265625 145.195312 113.910156 145.195312 111.558594 145.148438 L 109.335938 145.148438 L 109.335938 145.105469 C 104.625 145.058594 101.046875 145.058594 101.046875 145.058594 L 97.695312 145.148438 C 95.296875 145.238281 92.804688 145.332031 90.132812 145.46875 L 88.1875 145.558594 L 86.78125 145.648438 C 79.898438 146.058594 72.921875 146.601562 66.082031 147.332031 L 64.179688 147.511719 L 62.277344 147.738281 C 54.984375 148.601562 47.601562 149.648438 40.3125 150.828125 L 37.050781 151.375 L 35.78125 143.785156 C 35.101562 145.285156 34.152344 146.695312 32.972656 147.964844 C 30.074219 151.101562 25.90625 153.417969 21.195312 154.464844 C 17.800781 155.191406 14.402344 155.960938 11.007812 156.78125 L 7.789062 157.554688 L 0 125.25 L 0.769531 116.027344 L 4.03125 115.253906 C 7.699219 114.390625 11.460938 113.527344 15.128906 112.707031 L 15.171875 112.707031 C 16.894531 112.34375 18.660156 112.164062 20.382812 112.164062 C 24.503906 112.164062 28.21875 113.164062 31.160156 115.070312 C 32.066406 115.660156 32.882812 116.34375 33.609375 117.070312 L 32.339844 109.347656 L 35.644531 108.800781 C 42.121094 107.710938 48.644531 106.800781 55.167969 105.984375 L 63.183594 76.132812 L 65.359375 67.726562 L 102.136719 67.726562 C 107.617188 67.726562 111.464844 68.953125 113.910156 71.410156 C 114.363281 71.863281 114.816406 72.40625 115.136719 72.953125 L 116.585938 67.726562 L 170.574219 67.726562 L 168.308594 76.089844 L 166.949219 81.359375 L 165.589844 86.992188 L 162.148438 100.078125 L 162.105469 100.078125 L 160.746094 105.121094 L 161.515625 105.210938 L 162.558594 105.347656 C 167.132812 105.894531 171.796875 106.484375 176.324219 107.121094 L 176.417969 107.121094 C 178.679688 107.527344 180.992188 108.074219 183.074219 109.121094 L 182.578125 107.984375 L 188.734375 109.027344 C 191.769531 109.574219 194.851562 110.117188 197.886719 110.710938 L 199.695312 111.074219 L 200.375 112.800781 C 201.101562 114.664062 201.824219 116.570312 202.503906 118.433594 C 203.910156 116.980469 205.3125 115.527344 206.71875 114.070312 L 207.984375 112.753906 L 209.796875 113.164062 C 212.695312 113.800781 215.683594 114.480469 218.71875 115.207031 Z M 224.878906 116.707031 " fill-opacity="1" fill-rule="nonzero"/></g><path fill="#ffffff" d="M 35.058594 125.613281 C 34.46875 122.023438 32.65625 119.160156 29.757812 117.253906 C 27.222656 115.617188 24.003906 114.753906 20.382812 114.753906 C 18.84375 114.753906 17.257812 114.933594 15.671875 115.253906 C 12.003906 116.070312 8.289062 116.890625 4.621094 117.753906 L 3.894531 117.933594 L 10.417969 145.195312 L 11.140625 145.011719 C 14.539062 144.195312 17.980469 143.421875 21.378906 142.695312 C 25.589844 141.789062 29.257812 139.742188 31.796875 136.972656 C 34.738281 133.746094 35.871094 129.835938 35.058594 125.613281 Z M 17.617188 135.289062 L 15.039062 123.566406 C 15.851562 123.386719 16.488281 123.25 17.484375 123.023438 C 18.164062 122.886719 18.796875 122.839844 19.476562 122.839844 C 24.550781 122.839844 25.5 126.339844 25.679688 127.429688 L 25.679688 127.566406 C 26 129.019531 25.816406 130.335938 25.046875 131.519531 C 24.050781 133.0625 22.148438 134.289062 19.972656 134.789062 C 18.976562 134.972656 18.390625 135.109375 17.617188 135.289062 Z M 62.550781 128.109375 L 63.410156 135.835938 L 62.640625 135.925781 C 55.304688 136.789062 47.875 137.835938 40.582031 139.015625 L 39.859375 139.152344 L 35.238281 111.4375 L 36.007812 111.300781 C 43.707031 110.027344 51.542969 108.9375 59.289062 108.027344 L 60.058594 107.9375 L 60.964844 115.660156 L 60.195312 115.753906 C 55.4375 116.296875 50.59375 116.933594 45.835938 117.660156 L 46.199219 120.113281 C 50.457031 119.480469 54.804688 118.933594 59.0625 118.386719 L 59.832031 118.296875 L 60.691406 125.566406 L 59.921875 125.65625 C 55.710938 126.15625 51.453125 126.75 47.285156 127.339844 L 47.695312 130.019531 C 52.359375 129.339844 57.113281 128.703125 61.824219 128.15625 Z M 87.6875 125.792969 L 88.140625 133.746094 L 87.371094 133.789062 C 80.441406 134.199219 73.464844 134.746094 66.535156 135.472656 L 65.765625 135.5625 L 62.820312 107.621094 L 63.589844 107.527344 C 66.265625 107.257812 68.980469 106.984375 71.652344 106.757812 L 72.421875 106.710938 C 72.421875 106.710938 73.601562 120.339844 74.144531 126.75 C 78.355469 126.382812 82.660156 126.113281 86.871094 125.839844 Z M 98.285156 105.257812 L 99.144531 133.335938 L 98.375 133.335938 C 95.976562 133.425781 93.484375 133.519531 90.765625 133.652344 L 89.996094 133.699219 L 88.636719 105.667969 L 89.410156 105.621094 C 92.082031 105.484375 94.84375 105.394531 97.515625 105.304688 Z M 132.890625 105.574219 L 132.390625 106.621094 C 128.089844 115.296875 123.96875 124.160156 120.117188 132.972656 L 119.9375 133.425781 L 119.4375 133.425781 C 117.128906 133.382812 114.726562 133.382812 112.371094 133.335938 L 111.875 133.335938 L 111.691406 132.882812 C 107.980469 123.976562 104.039062 115.027344 99.960938 106.300781 L 99.464844 105.257812 L 100.640625 105.210938 C 103.539062 105.121094 106.621094 105.121094 109.699219 105.074219 L 110.199219 105.074219 L 110.378906 105.574219 C 112.328125 110.527344 114.273438 115.570312 116.132812 120.570312 C 118.078125 115.617188 120.117188 110.617188 122.199219 105.710938 L 122.382812 105.257812 L 122.878906 105.257812 C 125.734375 105.347656 128.722656 105.4375 131.757812 105.574219 Z M 158.707031 107.527344 L 157.9375 115.253906 L 157.167969 115.164062 C 152.410156 114.664062 147.566406 114.253906 142.765625 113.933594 L 142.582031 116.433594 C 146.886719 116.753906 151.1875 117.117188 155.492188 117.523438 L 156.261719 117.617188 L 155.535156 124.886719 L 154.765625 124.792969 C 150.554688 124.386719 146.296875 124.023438 142.085938 123.703125 L 141.902344 126.382812 C 146.613281 126.75 151.371094 127.15625 156.078125 127.613281 L 156.851562 127.703125 L 156.035156 135.425781 L 155.265625 135.335938 C 147.925781 134.609375 140.453125 134.019531 133.070312 133.609375 L 132.300781 133.5625 L 133.703125 105.53125 L 134.476562 105.574219 C 142.265625 105.984375 150.144531 106.574219 157.890625 107.394531 Z M 176.054688 109.664062 C 171.480469 109.027344 166.859375 108.4375 162.332031 107.894531 L 161.558594 107.800781 L 158.433594 135.699219 L 159.207031 135.789062 C 161.921875 136.109375 164.367188 136.378906 166.769531 136.699219 L 167.539062 136.789062 L 168.582031 128.792969 C 169.351562 128.882812 169.941406 128.972656 170.800781 129.109375 C 172.203125 131.882812 173.652344 134.699219 175.011719 137.515625 L 175.195312 137.878906 L 175.601562 137.925781 C 178.5 138.378906 181.398438 138.832031 184.296875 139.332031 L 185.746094 139.5625 L 185.113281 138.242188 C 183.617188 135.109375 182.03125 131.972656 180.492188 128.839844 C 184.117188 127.703125 186.652344 124.929688 187.195312 121.386719 L 187.195312 121.339844 C 187.695312 118.84375 187.105469 116.207031 185.519531 114.207031 C 183.164062 111.300781 179.585938 110.300781 176.054688 109.664062 Z M 170.074219 116.796875 C 171.523438 116.980469 173.019531 117.207031 174.515625 117.386719 C 175.328125 117.523438 177.957031 118.070312 177.683594 120.25 L 177.683594 120.296875 C 177.367188 121.976562 175.691406 122.203125 174.742188 122.203125 C 174.46875 122.203125 174.195312 122.203125 173.878906 122.160156 C 172.429688 121.976562 170.9375 121.75 169.488281 121.570312 Z M 219.582031 118.070312 L 218.539062 119.023438 C 213.738281 123.429688 208.980469 127.976562 204.40625 132.519531 L 202.1875 142.878906 L 201.464844 142.695312 C 199.109375 142.195312 196.617188 141.695312 193.945312 141.152344 L 193.21875 141.015625 L 195.214844 130.746094 C 192.765625 124.703125 190.230469 118.617188 187.558594 112.664062 L 186.96875 111.34375 L 188.375 111.574219 C 191.410156 112.117188 194.441406 112.664062 197.476562 113.207031 L 197.886719 113.300781 L 198.019531 113.707031 C 199.242188 116.84375 200.421875 120.070312 201.554688 123.203125 C 203.863281 120.75 206.21875 118.296875 208.574219 115.890625 L 208.847656 115.570312 L 209.253906 115.660156 C 212.105469 116.296875 215.097656 116.980469 218.132812 117.707031 Z M 85.378906 83.265625 L 83.972656 88.492188 L 71.609375 88.492188 L 69.296875 97.171875 L 60.464844 97.171875 L 63.457031 86.082031 L 67.578125 70.636719 L 89.726562 70.636719 L 87.6875 78.222656 L 74.371094 78.222656 L 73.464844 81.585938 L 85.832031 81.585938 Z M 151.007812 77.90625 L 150.28125 80.585938 L 163.234375 80.585938 L 161.558594 86.902344 L 161.558594 86.992188 L 148.5625 86.992188 L 147.746094 89.855469 L 161.832031 89.855469 L 159.882812 97.125 L 137.101562 97.125 L 140.679688 83.722656 L 144.214844 70.546875 L 166.8125 70.546875 L 164.867188 77.816406 L 151.007812 77.816406 Z M 113.460938 82.3125 C 113.820312 81.269531 114.003906 80.175781 114.003906 79.042969 C 114.003906 76.953125 113.414062 74.996094 111.917969 73.5 C 110.152344 71.726562 107.027344 70.636719 102.179688 70.636719 L 91.855469 70.636719 L 88.546875 83.039062 L 84.699219 97.171875 L 93.53125 97.171875 L 95.566406 89.582031 L 97.742188 89.582031 L 100.6875 97.171875 L 110.199219 97.171875 L 106.527344 88.308594 C 110.378906 87.175781 112.554688 84.992188 113.460938 82.3125 Z M 100.503906 83.265625 L 97.289062 83.265625 L 97.46875 82.539062 L 98.695312 78.042969 L 101.820312 78.042969 C 103.085938 78.042969 103.949219 78.3125 104.445312 78.8125 C 104.808594 79.175781 105.035156 79.675781 105.035156 80.222656 C 105.035156 81.039062 104.671875 81.8125 103.902344 82.359375 C 103.132812 82.902344 102 83.265625 100.503906 83.265625 Z M 123.105469 86.992188 L 122.292969 89.855469 L 136.378906 89.855469 L 134.429688 97.125 L 111.648438 97.125 L 115.632812 82.265625 L 118.757812 70.546875 L 141.359375 70.546875 L 139.410156 77.816406 L 125.550781 77.816406 L 124.828125 80.496094 L 137.78125 80.496094 L 137.011719 83.3125 L 136.058594 86.902344 L 123.105469 86.902344 Z M 123.105469 86.992188 " fill-opacity="1" fill-rule="nonzero"/><path fill="#ffce00" d="M 34.332031 125.792969 C 34.332031 125.75 34.332031 125.75 34.332031 125.703125 C 32.882812 116.707031 23.597656 114.34375 15.851562 115.933594 C 12.183594 116.753906 8.515625 117.570312 4.847656 118.433594 C 6.160156 123.929688 7.472656 129.472656 8.785156 134.972656 C 9.511719 138.0625 10.28125 141.152344 11.007812 144.285156 C 14.402344 143.46875 17.800781 142.695312 21.242188 141.96875 C 28.625 140.332031 35.507812 134.789062 34.511719 126.65625 C 34.421875 126.382812 34.378906 126.066406 34.332031 125.792969 Z M 20.109375 135.515625 C 18.886719 135.789062 18.253906 135.925781 17.03125 136.199219 C 16.714844 134.746094 16.394531 133.289062 16.078125 131.792969 C 15.445312 128.839844 14.765625 125.929688 14.132812 122.976562 C 15.398438 122.703125 16.035156 122.566406 17.300781 122.296875 C 21.195312 121.476562 25.679688 122.796875 26.359375 127.292969 C 26.359375 127.339844 26.359375 127.339844 26.359375 127.382812 C 26.449219 127.792969 26.496094 128.15625 26.542969 128.566406 C 26.769531 132.199219 23.597656 134.746094 20.109375 135.515625 Z M 97.96875 120.023438 C 98.105469 124.203125 98.242188 128.382812 98.332031 132.5625 C 95.792969 132.65625 93.257812 132.746094 90.675781 132.882812 C 90.496094 128.703125 90.269531 124.476562 90.085938 120.296875 C 89.863281 115.660156 89.636719 110.980469 89.410156 106.347656 C 92.125 106.210938 94.796875 106.121094 97.515625 106.03125 C 97.695312 110.710938 97.832031 115.390625 97.96875 120.023438 Z M 122.835938 105.9375 C 125.777344 106.03125 128.722656 106.121094 131.710938 106.257812 C 129.449219 110.890625 127.183594 115.527344 125.054688 120.207031 C 123.152344 124.339844 121.25 128.476562 119.4375 132.65625 C 117.082031 132.609375 114.726562 132.609375 112.371094 132.5625 C 110.605469 128.339844 108.792969 124.113281 106.980469 119.933594 C 104.898438 115.253906 102.816406 110.574219 100.640625 105.9375 C 103.628906 105.847656 106.664062 105.800781 109.65625 105.800781 C 111.511719 110.480469 113.324219 115.207031 115.089844 119.933594 C 115.40625 120.839844 115.769531 121.703125 116.085938 122.613281 C 116.449219 121.703125 116.765625 120.839844 117.128906 119.976562 C 118.941406 115.296875 120.886719 110.617188 122.835938 105.9375 Z M 134.519531 106.394531 C 142.3125 106.800781 150.101562 107.394531 157.890625 108.164062 C 157.664062 110.253906 157.484375 112.300781 157.257812 114.390625 C 152.183594 113.890625 147.15625 113.4375 142.085938 113.070312 C 141.992188 114.664062 141.902344 115.480469 141.8125 117.070312 C 146.34375 117.386719 150.917969 117.753906 155.445312 118.207031 C 155.308594 119.523438 155.175781 120.886719 155.039062 122.203125 C 154.992188 122.796875 154.902344 123.386719 154.855469 123.976562 C 150.371094 123.523438 145.890625 123.160156 141.40625 122.839844 C 141.269531 124.523438 141.222656 125.386719 141.132812 127.066406 C 146.117188 127.429688 151.097656 127.839844 156.035156 128.339844 C 155.808594 130.429688 155.625 132.472656 155.402344 134.5625 C 148.019531 133.835938 140.589844 133.246094 133.160156 132.835938 C 133.386719 128.703125 133.570312 124.613281 133.796875 120.476562 C 134.023438 115.84375 134.292969 111.117188 134.519531 106.394531 Z M 175.917969 110.390625 C 171.34375 109.753906 166.8125 109.164062 162.238281 108.664062 C 161.695312 113.4375 161.199219 118.207031 160.65625 122.929688 C 160.203125 126.976562 159.75 131.019531 159.296875 135.0625 C 161.832031 135.335938 164.324219 135.652344 166.859375 135.972656 C 167.222656 133.289062 167.539062 130.65625 167.902344 127.976562 C 169.214844 128.15625 169.894531 128.246094 171.207031 128.429688 C 171.253906 128.429688 171.253906 128.429688 171.296875 128.429688 C 172.792969 131.335938 174.242188 134.246094 175.691406 137.199219 C 178.589844 137.652344 181.488281 138.105469 184.386719 138.605469 C 182.757812 135.199219 181.035156 131.792969 179.316406 128.382812 C 180.71875 128.066406 182.03125 127.476562 183.121094 126.65625 C 184.796875 125.386719 186.019531 123.566406 186.382812 121.296875 C 186.382812 121.25 186.382812 121.25 186.382812 121.203125 C 186.832031 118.933594 186.289062 116.523438 184.886719 114.664062 C 182.667969 111.890625 179.179688 110.980469 175.917969 110.390625 Z M 169.394531 115.933594 C 171.117188 116.160156 172.839844 116.390625 174.558594 116.660156 C 176.550781 116.933594 178.679688 118.070312 178.363281 120.386719 C 178.363281 120.433594 178.363281 120.433594 178.363281 120.476562 C 177.957031 122.703125 175.691406 123.25 173.699219 122.976562 C 171.976562 122.75 170.257812 122.523438 168.535156 122.296875 C 168.851562 120.160156 169.125 118.070312 169.394531 115.933594 Z M 218.039062 118.480469 C 213.195312 122.929688 208.394531 127.476562 203.726562 132.15625 C 203.683594 132.335938 203.636719 132.472656 203.636719 132.65625 C 202.957031 135.746094 202.324219 138.878906 201.644531 141.96875 C 199.152344 141.421875 196.617188 140.925781 194.125 140.425781 C 194.761719 137.152344 195.394531 133.925781 196.027344 130.65625 C 195.9375 130.382812 195.800781 130.15625 195.710938 129.882812 C 193.355469 123.976562 190.863281 118.160156 188.28125 112.34375 C 191.316406 112.890625 194.351562 113.4375 197.386719 113.980469 C 198.746094 117.523438 200.058594 121.070312 201.371094 124.613281 C 203.953125 121.839844 206.582031 119.113281 209.253906 116.390625 C 212.105469 117.070312 215.050781 117.753906 218.039062 118.480469 Z M 61.914062 128.929688 C 62.140625 131.019531 62.367188 133.0625 62.640625 135.152344 C 55.257812 136.015625 47.875 137.0625 40.539062 138.289062 L 38.453125 125.886719 C 37.683594 121.296875 36.914062 116.707031 36.144531 112.117188 C 43.890625 110.847656 51.632812 109.753906 59.425781 108.847656 C 59.652344 110.9375 59.878906 112.980469 60.148438 115.070312 C 55.078125 115.660156 50.046875 116.34375 45.019531 117.070312 C 45.246094 118.660156 45.382812 119.480469 45.609375 121.070312 C 50.140625 120.386719 54.667969 119.796875 59.199219 119.25 C 59.332031 120.386719 59.46875 121.570312 59.605469 122.703125 C 59.695312 123.476562 59.785156 124.25 59.878906 125.023438 C 55.394531 125.566406 50.953125 126.15625 46.46875 126.792969 C 46.695312 128.476562 46.832031 129.292969 47.105469 130.972656 C 51.996094 130.15625 56.933594 129.519531 61.914062 128.929688 Z M 86.960938 126.613281 C 87.097656 128.746094 87.1875 130.929688 87.324219 133.0625 C 80.351562 133.472656 73.421875 134.019531 66.488281 134.746094 C 66.039062 130.519531 65.585938 126.25 65.175781 122.023438 C 64.679688 117.480469 64.226562 112.890625 63.726562 108.347656 C 66.398438 108.074219 69.070312 107.800781 71.789062 107.574219 C 72.195312 112.164062 72.605469 116.753906 72.96875 121.339844 C 73.148438 123.429688 73.328125 125.519531 73.511719 127.613281 C 77.996094 127.203125 82.480469 126.882812 86.960938 126.613281 Z M 86.960938 126.613281 " fill-opacity="1" fill-rule="nonzero"/><path fill="#ddb300" d="M 21.195312 141.96875 C 17.800781 142.695312 14.359375 143.46875 10.960938 144.285156 C 10.234375 141.195312 9.464844 138.105469 8.742188 134.972656 C 10.871094 133.882812 13.316406 132.789062 16.035156 131.792969 C 16.351562 133.246094 16.667969 134.699219 16.984375 136.199219 C 18.207031 135.925781 18.84375 135.789062 20.066406 135.515625 C 23.550781 134.746094 26.722656 132.199219 26.496094 128.519531 C 28.988281 127.882812 31.613281 127.246094 34.378906 126.65625 C 35.464844 134.789062 28.578125 140.332031 21.195312 141.96875 Z M 61.914062 128.929688 C 56.933594 129.519531 51.996094 130.15625 47.058594 130.882812 C 46.832031 129.203125 46.695312 128.382812 46.425781 126.703125 C 50.863281 126.066406 55.347656 125.429688 59.832031 124.929688 C 59.742188 124.160156 59.652344 123.386719 59.558594 122.613281 C 51.949219 123.523438 44.886719 124.566406 38.453125 125.839844 L 40.539062 138.242188 C 47.875 137.015625 55.257812 135.972656 62.640625 135.109375 C 62.367188 133.0625 62.140625 131.019531 61.914062 128.929688 Z M 86.960938 126.613281 C 82.480469 126.882812 77.996094 127.203125 73.511719 127.566406 C 73.328125 125.476562 73.148438 123.386719 72.96875 121.296875 C 70.292969 121.523438 67.714844 121.75 65.175781 122.023438 C 65.628906 126.25 66.082031 130.519531 66.488281 134.746094 C 73.421875 134.019531 80.394531 133.472656 87.324219 133.0625 C 87.1875 130.882812 87.097656 128.746094 86.960938 126.613281 Z M 97.96875 120.023438 C 95.296875 120.070312 92.714844 120.160156 90.085938 120.25 C 90.269531 124.429688 90.496094 128.65625 90.675781 132.835938 C 93.214844 132.699219 95.75 132.609375 98.332031 132.519531 C 98.242188 128.382812 98.105469 124.203125 97.96875 120.023438 Z M 117.082031 119.976562 C 116.71875 120.839844 116.359375 121.75 116.039062 122.613281 C 115.722656 121.703125 115.363281 120.839844 115.042969 119.933594 C 112.960938 119.886719 110.878906 119.886719 108.75 119.886719 C 108.113281 119.886719 107.527344 119.886719 106.890625 119.886719 C 108.75 124.066406 110.558594 128.292969 112.28125 132.519531 C 114.636719 132.519531 116.992188 132.5625 119.347656 132.609375 C 121.160156 128.429688 123.0625 124.292969 124.964844 120.160156 C 122.382812 120.113281 119.753906 120.023438 117.082031 119.976562 Z M 141.132812 127.113281 C 141.269531 125.429688 141.3125 124.566406 141.40625 122.886719 C 145.890625 123.203125 150.371094 123.566406 154.855469 124.023438 C 154.902344 123.429688 154.992188 122.839844 155.039062 122.25 C 148.289062 121.523438 141.179688 120.933594 133.796875 120.523438 C 133.570312 124.65625 133.386719 128.746094 133.160156 132.882812 C 140.589844 133.289062 147.972656 133.835938 155.402344 134.609375 C 155.625 132.519531 155.808594 130.472656 156.035156 128.382812 C 151.050781 127.882812 146.117188 127.476562 141.132812 127.113281 Z M 179.269531 128.382812 C 180.675781 128.066406 181.988281 127.476562 183.074219 126.65625 C 176.324219 125.203125 168.761719 123.929688 160.609375 122.929688 C 160.15625 126.976562 159.703125 131.019531 159.25 135.0625 C 161.785156 135.335938 164.277344 135.652344 166.8125 135.972656 C 167.175781 133.289062 167.492188 130.65625 167.855469 127.976562 C 169.167969 128.15625 169.847656 128.246094 171.164062 128.429688 C 171.207031 128.429688 171.207031 128.429688 171.253906 128.429688 C 172.746094 131.335938 174.195312 134.246094 175.644531 137.199219 C 178.546875 137.652344 181.445312 138.105469 184.34375 138.605469 C 182.667969 135.199219 180.992188 131.792969 179.269531 128.382812 Z M 195.664062 129.882812 C 195.757812 130.15625 195.890625 130.382812 195.984375 130.65625 C 195.347656 133.925781 194.714844 137.152344 194.082031 140.425781 C 196.570312 140.925781 199.109375 141.421875 201.597656 141.96875 C 202.277344 138.878906 202.914062 135.746094 203.59375 132.65625 C 201.191406 131.699219 198.566406 130.746094 195.664062 129.882812 Z M 195.664062 129.882812 " fill-opacity="1" fill-rule="nonzero"/><path fill="#d5d5d5" d="M 85.378906 83.265625 L 83.972656 88.492188 L 71.609375 88.492188 L 69.296875 97.171875 L 60.464844 97.171875 L 63.457031 86.082031 C 70.023438 84.855469 77.40625 83.902344 85.378906 83.265625 Z M 113.460938 82.3125 C 112.417969 82.3125 111.375 82.3125 110.332031 82.3125 C 108.160156 82.3125 105.984375 82.3125 103.855469 82.359375 C 103.085938 82.902344 101.953125 83.265625 100.460938 83.265625 L 97.246094 83.265625 L 97.425781 82.539062 C 94.390625 82.675781 91.402344 82.8125 88.457031 83.039062 L 84.699219 97.171875 L 93.53125 97.171875 L 95.566406 89.582031 L 97.742188 89.582031 L 100.6875 97.171875 L 110.199219 97.171875 L 106.527344 88.308594 C 110.378906 87.175781 112.554688 84.992188 113.460938 82.3125 Z M 123.105469 86.992188 L 136.058594 86.992188 L 137.011719 83.402344 C 130.261719 82.8125 123.105469 82.449219 115.679688 82.3125 L 111.691406 97.171875 L 134.476562 97.171875 L 136.421875 89.898438 L 122.335938 89.898438 Z M 147.792969 89.898438 L 148.605469 87.039062 L 161.558594 87.039062 L 161.558594 86.945312 C 155.402344 85.628906 148.378906 84.585938 140.769531 83.8125 L 137.191406 97.214844 L 159.976562 97.214844 L 161.921875 89.945312 Z M 147.792969 89.898438 " fill-opacity="1" fill-rule="nonzero"/></svg>