<svg xmlns="http://www.w3.org/2000/svg" xmlns:xlink="http://www.w3.org/1999/xlink" width="300" zoomAndPan="magnify" viewBox="0 0 224.87999 225" height="300" preserveAspectRatio="xMidYMid meet" version="1.0"><defs><clipPath id="7a4a20c1ca"><path d="M 40.902344 40.960938 L 178.828125 40.960938 L 178.828125 178.886719 L 40.902344 178.886719 Z M 40.902344 40.960938 " clip-rule="nonzero"/></clipPath></defs><g clip-path="url(#7a4a20c1ca)"><path fill="#20ab4b" d="M 178.832031 109.921875 C 178.832031 111.050781 178.804688 112.179688 178.75 113.308594 C 178.695312 114.433594 178.613281 115.5625 178.5 116.683594 C 178.390625 117.808594 178.253906 118.925781 178.085938 120.042969 C 177.921875 121.160156 177.726562 122.273438 177.507812 123.378906 C 177.289062 124.484375 177.039062 125.585938 176.765625 126.683594 C 176.492188 127.777344 176.191406 128.863281 175.863281 129.945312 C 175.535156 131.023438 175.183594 132.097656 174.800781 133.160156 C 174.421875 134.222656 174.015625 135.273438 173.582031 136.316406 C 173.152344 137.359375 172.695312 138.390625 172.210938 139.410156 C 171.730469 140.433594 171.222656 141.441406 170.691406 142.4375 C 170.15625 143.429688 169.601562 144.414062 169.019531 145.382812 C 168.441406 146.347656 167.835938 147.300781 167.210938 148.242188 C 166.582031 149.179688 165.933594 150.101562 165.261719 151.007812 C 164.589844 151.914062 163.894531 152.804688 163.179688 153.675781 C 162.460938 154.550781 161.726562 155.40625 160.96875 156.242188 C 160.207031 157.078125 159.429688 157.894531 158.632812 158.691406 C 157.835938 159.492188 157.015625 160.269531 156.179688 161.027344 C 155.34375 161.785156 154.488281 162.523438 153.617188 163.238281 C 152.746094 163.953125 151.855469 164.648438 150.949219 165.320312 C 150.042969 165.992188 149.121094 166.644531 148.179688 167.269531 C 147.242188 167.898438 146.289062 168.5 145.320312 169.082031 C 144.351562 169.660156 143.371094 170.21875 142.375 170.75 C 141.378906 171.28125 140.371094 171.789062 139.351562 172.273438 C 138.332031 172.753906 137.300781 173.210938 136.257812 173.644531 C 135.214844 174.074219 134.160156 174.480469 133.097656 174.863281 C 132.035156 175.242188 130.964844 175.597656 129.882812 175.921875 C 128.804688 176.25 127.71875 176.550781 126.621094 176.828125 C 125.527344 177.101562 124.425781 177.347656 123.320312 177.566406 C 122.210938 177.789062 121.101562 177.980469 119.984375 178.148438 C 118.867188 178.3125 117.746094 178.449219 116.625 178.5625 C 115.5 178.671875 114.375 178.753906 113.246094 178.808594 C 112.121094 178.867188 110.992188 178.894531 109.863281 178.894531 C 108.734375 178.894531 107.605469 178.867188 106.480469 178.808594 C 105.351562 178.753906 104.226562 178.671875 103.101562 178.5625 C 101.980469 178.449219 100.859375 178.3125 99.742188 178.148438 C 98.628906 177.980469 97.515625 177.789062 96.410156 177.566406 C 95.300781 177.347656 94.199219 177.101562 93.105469 176.828125 C 92.011719 176.550781 90.921875 176.25 89.84375 175.921875 C 88.761719 175.597656 87.691406 175.242188 86.628906 174.863281 C 85.566406 174.480469 84.511719 174.074219 83.46875 173.644531 C 82.425781 173.210938 81.394531 172.753906 80.375 172.273438 C 79.355469 171.789062 78.347656 171.28125 77.351562 170.75 C 76.355469 170.21875 75.375 169.660156 74.40625 169.082031 C 73.4375 168.5 72.484375 167.898438 71.546875 167.269531 C 70.609375 166.644531 69.683594 165.992188 68.777344 165.320312 C 67.871094 164.648438 66.980469 163.953125 66.109375 163.238281 C 65.238281 162.523438 64.382812 161.785156 63.546875 161.027344 C 62.710938 160.269531 61.894531 159.492188 61.09375 158.691406 C 60.296875 157.894531 59.519531 157.078125 58.761719 156.242188 C 58.003906 155.40625 57.265625 154.550781 56.550781 153.675781 C 55.832031 152.804688 55.140625 151.914062 54.464844 151.007812 C 53.792969 150.101562 53.144531 149.179688 52.515625 148.242188 C 51.890625 147.304688 51.285156 146.347656 50.707031 145.382812 C 50.125 144.414062 49.570312 143.429688 49.039062 142.4375 C 48.503906 141.441406 48 140.433594 47.515625 139.410156 C 47.03125 138.390625 46.574219 137.359375 46.144531 136.316406 C 45.710938 135.273438 45.304688 134.222656 44.925781 133.160156 C 44.546875 132.097656 44.191406 131.023438 43.863281 129.945312 C 43.535156 128.863281 43.234375 127.777344 42.960938 126.683594 C 42.6875 125.585938 42.4375 124.484375 42.21875 123.378906 C 42 122.273438 41.804688 121.160156 41.640625 120.042969 C 41.476562 118.925781 41.335938 117.808594 41.226562 116.683594 C 41.117188 115.5625 41.03125 114.433594 40.976562 113.308594 C 40.921875 112.179688 40.894531 111.050781 40.894531 109.921875 C 40.894531 108.796875 40.921875 107.667969 40.976562 106.539062 C 41.03125 105.414062 41.117188 104.285156 41.226562 103.164062 C 41.335938 102.039062 41.476562 100.921875 41.640625 99.804688 C 41.804688 98.6875 42 97.574219 42.21875 96.46875 C 42.4375 95.359375 42.6875 94.261719 42.960938 93.164062 C 43.234375 92.070312 43.535156 90.984375 43.863281 89.902344 C 44.191406 88.824219 44.546875 87.75 44.925781 86.6875 C 45.304688 85.625 45.710938 84.574219 46.144531 83.53125 C 46.574219 82.488281 47.03125 81.457031 47.515625 80.433594 C 48 79.414062 48.503906 78.40625 49.039062 77.410156 C 49.570312 76.417969 50.125 75.433594 50.707031 74.464844 C 51.285156 73.496094 51.890625 72.542969 52.515625 71.605469 C 53.144531 70.667969 53.792969 69.746094 54.464844 68.839844 C 55.140625 67.933594 55.832031 67.042969 56.550781 66.167969 C 57.265625 65.296875 58.003906 64.441406 58.761719 63.605469 C 59.519531 62.769531 60.296875 61.953125 61.09375 61.15625 C 61.894531 60.355469 62.710938 59.578125 63.546875 58.820312 C 64.382812 58.0625 65.238281 57.324219 66.109375 56.609375 C 66.980469 55.894531 67.871094 55.199219 68.777344 54.527344 C 69.683594 53.855469 70.609375 53.203125 71.546875 52.578125 C 72.484375 51.949219 73.4375 51.347656 74.40625 50.765625 C 75.375 50.1875 76.355469 49.628906 77.351562 49.097656 C 78.347656 48.566406 79.355469 48.058594 80.375 47.574219 C 81.394531 47.09375 82.425781 46.636719 83.46875 46.203125 C 84.511719 45.773438 85.566406 45.367188 86.628906 44.984375 C 87.691406 44.605469 88.761719 44.25 89.84375 43.921875 C 90.921875 43.597656 92.011719 43.296875 93.105469 43.019531 C 94.199219 42.746094 95.300781 42.5 96.410156 42.277344 C 97.515625 42.058594 98.628906 41.867188 99.742188 41.699219 C 100.859375 41.535156 101.980469 41.398438 103.101562 41.285156 C 104.226562 41.175781 105.351562 41.09375 106.480469 41.035156 C 107.605469 40.980469 108.734375 40.953125 109.863281 40.953125 C 110.992188 40.953125 112.121094 40.980469 113.246094 41.035156 C 114.375 41.09375 115.5 41.175781 116.625 41.285156 C 117.746094 41.398438 118.867188 41.535156 119.984375 41.699219 C 121.101562 41.867188 122.210938 42.058594 123.320312 42.277344 C 124.425781 42.5 125.527344 42.746094 126.621094 43.019531 C 127.71875 43.296875 128.804688 43.597656 129.882812 43.921875 C 130.964844 44.25 132.035156 44.605469 133.097656 44.984375 C 134.160156 45.367188 135.214844 45.773438 136.257812 46.203125 C 137.300781 46.636719 138.332031 47.09375 139.351562 47.574219 C 140.371094 48.058594 141.378906 48.566406 142.375 49.097656 C 143.371094 49.628906 144.351562 50.1875 145.320312 50.765625 C 146.289062 51.347656 147.242188 51.949219 148.179688 52.578125 C 149.121094 53.203125 150.042969 53.855469 150.949219 54.527344 C 151.855469 55.199219 152.746094 55.894531 153.617188 56.609375 C 154.488281 57.324219 155.34375 58.0625 156.179688 58.820312 C 157.015625 59.578125 157.835938 60.355469 158.632812 61.15625 C 159.429688 61.953125 160.207031 62.769531 160.96875 63.605469 C 161.726562 64.441406 162.460938 65.296875 163.179688 66.167969 C 163.894531 67.042969 164.589844 67.933594 165.261719 68.839844 C 165.933594 69.746094 166.582031 70.667969 167.210938 71.605469 C 167.835938 72.542969 168.441406 73.496094 169.019531 74.464844 C 169.601562 75.433594 170.15625 76.417969 170.691406 77.410156 C 171.222656 78.40625 171.730469 79.414062 172.210938 80.433594 C 172.695312 81.457031 173.152344 82.488281 173.582031 83.53125 C 174.015625 84.574219 174.421875 85.625 174.800781 86.6875 C 175.183594 87.75 175.535156 88.824219 175.863281 89.902344 C 176.191406 90.984375 176.492188 92.070312 176.765625 93.164062 C 177.039062 94.261719 177.289062 95.359375 177.507812 96.46875 C 177.726562 97.574219 177.921875 98.6875 178.085938 99.804688 C 178.253906 100.921875 178.390625 102.039062 178.5 103.164062 C 178.613281 104.285156 178.695312 105.414062 178.75 106.539062 C 178.804688 107.667969 178.832031 108.796875 178.832031 109.921875 Z M 178.832031 109.921875 " fill-opacity="1" fill-rule="nonzero"/></g><path fill="#ffffff" d="M 109.863281 152.304688 C 106.167969 152.308594 102.535156 151.835938 98.964844 150.886719 C 95.394531 149.9375 92.003906 148.542969 88.800781 146.707031 L 69.039062 152 L 74.183594 132.800781 C 73.765625 132.148438 73.363281 131.480469 72.980469 130.804688 C 72.597656 130.128906 72.230469 129.441406 71.886719 128.746094 C 71.542969 128.046875 71.214844 127.34375 70.910156 126.628906 C 70.601562 125.914062 70.316406 125.191406 70.050781 124.460938 C 69.78125 123.730469 69.535156 122.992188 69.308594 122.246094 C 69.082031 121.503906 68.878906 120.753906 68.691406 120 C 68.507812 119.242188 68.34375 118.484375 68.199219 117.71875 C 68.058594 116.957031 67.9375 116.1875 67.835938 115.417969 C 67.734375 114.644531 67.65625 113.871094 67.597656 113.097656 C 67.539062 112.320312 67.5 111.542969 67.484375 110.765625 C 67.46875 109.988281 67.476562 109.210938 67.503906 108.433594 C 67.53125 107.660156 67.578125 106.882812 67.648438 106.109375 C 67.71875 105.332031 67.808594 104.5625 67.921875 103.792969 C 68.035156 103.023438 68.167969 102.257812 68.324219 101.496094 C 68.476562 100.734375 68.652344 99.976562 68.847656 99.222656 C 69.046875 98.472656 69.261719 97.722656 69.5 96.984375 C 69.738281 96.242188 69.996094 95.511719 70.273438 94.785156 C 70.550781 94.058594 70.847656 93.339844 71.164062 92.628906 C 71.480469 91.917969 71.820312 91.21875 72.175781 90.527344 C 72.53125 89.835938 72.90625 89.15625 73.296875 88.484375 C 73.691406 87.8125 74.101562 87.152344 74.53125 86.503906 C 74.960938 85.855469 75.410156 85.222656 75.875 84.597656 C 76.339844 83.972656 76.820312 83.363281 77.316406 82.765625 C 77.816406 82.167969 78.332031 81.585938 78.859375 81.019531 C 79.390625 80.449219 79.9375 79.894531 80.496094 79.355469 C 81.058594 78.816406 81.632812 78.296875 82.222656 77.789062 C 82.8125 77.28125 83.414062 76.789062 84.03125 76.316406 C 84.648438 75.84375 85.277344 75.386719 85.917969 74.945312 C 86.5625 74.507812 87.214844 74.085938 87.878906 73.683594 C 88.542969 73.28125 89.21875 72.894531 89.90625 72.527344 C 90.589844 72.164062 91.285156 71.816406 91.992188 71.488281 C 92.699219 71.160156 93.410156 70.851562 94.132812 70.5625 C 94.855469 70.273438 95.585938 70.007812 96.320312 69.757812 C 97.058594 69.507812 97.800781 69.28125 98.550781 69.074219 C 99.300781 68.867188 100.054688 68.679688 100.816406 68.511719 C 101.574219 68.347656 102.339844 68.203125 103.105469 68.078125 C 103.875 67.953125 104.644531 67.851562 105.417969 67.769531 C 106.191406 67.6875 106.964844 67.628906 107.742188 67.589844 C 108.519531 67.550781 109.296875 67.535156 110.074219 67.539062 C 110.851562 67.542969 111.628906 67.566406 112.402344 67.613281 C 113.179688 67.660156 113.953125 67.726562 114.726562 67.816406 C 115.5 67.90625 116.269531 68.015625 117.035156 68.148438 C 117.800781 68.28125 118.5625 68.433594 119.320312 68.605469 C 120.078125 68.78125 120.832031 68.972656 121.578125 69.1875 C 122.328125 69.402344 123.066406 69.640625 123.800781 69.894531 C 124.535156 70.152344 125.261719 70.425781 125.984375 70.722656 C 126.703125 71.019531 127.414062 71.332031 128.113281 71.667969 C 128.816406 72.003906 129.507812 72.359375 130.191406 72.730469 C 130.871094 73.101562 131.542969 73.496094 132.203125 73.90625 C 132.867188 74.316406 133.515625 74.742188 134.152344 75.1875 C 134.789062 75.632812 135.414062 76.097656 136.027344 76.578125 C 136.636719 77.058594 137.234375 77.554688 137.820312 78.066406 C 138.402344 78.578125 138.972656 79.109375 139.53125 79.652344 C 140.085938 80.195312 140.625 80.753906 141.148438 81.328125 C 141.675781 81.902344 142.183594 82.492188 142.675781 83.09375 C 143.167969 83.695312 143.640625 84.3125 144.101562 84.9375 C 144.558594 85.566406 145 86.207031 145.421875 86.859375 C 145.84375 87.511719 146.25 88.175781 146.636719 88.851562 C 147.023438 89.527344 147.390625 90.210938 147.738281 90.90625 C 148.089844 91.601562 148.417969 92.304688 148.730469 93.015625 C 149.039062 93.730469 149.328125 94.453125 149.597656 95.179688 C 149.871094 95.910156 150.121094 96.644531 150.351562 97.386719 C 150.578125 98.132812 150.789062 98.878906 150.976562 99.632812 C 151.167969 100.386719 151.335938 101.148438 151.480469 101.910156 C 151.628906 102.675781 151.753906 103.441406 151.859375 104.210938 C 151.964844 104.984375 152.046875 105.753906 152.109375 106.53125 C 152.171875 107.304688 152.210938 108.082031 152.230469 108.859375 C 152.25 109.636719 152.25 110.414062 152.226562 111.191406 C 152.203125 111.96875 152.15625 112.746094 152.09375 113.519531 C 152.027344 114.292969 151.9375 115.066406 151.832031 115.835938 C 151.722656 116.605469 151.59375 117.375 151.441406 118.136719 C 151.289062 118.898438 151.117188 119.65625 150.925781 120.410156 C 150.734375 121.164062 150.519531 121.910156 150.289062 122.652344 C 150.054688 123.394531 149.800781 124.128906 149.527344 124.859375 C 149.253906 125.585938 148.957031 126.304688 148.644531 127.015625 C 148.332031 127.726562 147.996094 128.429688 147.644531 129.125 C 147.292969 129.816406 146.921875 130.5 146.53125 131.171875 C 146.140625 131.84375 145.734375 132.507812 145.308594 133.15625 C 144.882812 133.808594 144.4375 134.445312 143.976562 135.070312 C 143.515625 135.699219 143.035156 136.308594 142.542969 136.910156 C 142.046875 137.507812 141.535156 138.09375 141.007812 138.667969 C 140.480469 139.238281 139.9375 139.792969 139.378906 140.335938 C 138.820312 140.878906 138.25 141.402344 137.660156 141.914062 C 137.074219 142.421875 136.472656 142.917969 135.859375 143.394531 C 135.246094 143.871094 134.621094 144.332031 133.980469 144.773438 C 133.339844 145.214844 132.6875 145.640625 132.027344 146.046875 C 131.363281 146.453125 130.691406 146.839844 130.007812 147.210938 C 129.320312 147.582031 128.628906 147.929688 127.925781 148.261719 C 127.222656 148.59375 126.507812 148.90625 125.789062 149.199219 C 125.066406 149.492188 124.339844 149.761719 123.605469 150.015625 C 122.867188 150.265625 122.125 150.5 121.378906 150.710938 C 120.628906 150.921875 119.875 151.113281 119.117188 151.28125 C 118.359375 151.453125 117.597656 151.601562 116.828125 151.726562 C 116.0625 151.855469 115.292969 151.960938 114.519531 152.046875 C 113.746094 152.132812 112.972656 152.199219 112.195312 152.242188 C 111.417969 152.285156 110.640625 152.304688 109.863281 152.304688 Z M 90.234375 137.035156 L 91.898438 138.097656 C 92.476562 138.46875 93.066406 138.816406 93.664062 139.148438 C 94.261719 139.484375 94.871094 139.796875 95.488281 140.089844 C 96.109375 140.386719 96.734375 140.660156 97.371094 140.917969 C 98.003906 141.175781 98.648438 141.410156 99.296875 141.628906 C 99.949219 141.84375 100.605469 142.039062 101.265625 142.21875 C 101.929688 142.394531 102.59375 142.550781 103.265625 142.683594 C 103.9375 142.820312 104.613281 142.933594 105.292969 143.027344 C 105.96875 143.121094 106.652344 143.195312 107.332031 143.246094 C 108.015625 143.300781 108.699219 143.332031 109.386719 143.339844 C 110.070312 143.351562 110.753906 143.339844 111.441406 143.308594 C 112.125 143.277344 112.808594 143.222656 113.488281 143.148438 C 114.167969 143.074219 114.847656 142.980469 115.523438 142.863281 C 116.199219 142.746094 116.867188 142.613281 117.535156 142.453125 C 118.203125 142.296875 118.863281 142.121094 119.519531 141.921875 C 120.175781 141.722656 120.824219 141.507812 121.46875 141.269531 C 122.109375 141.03125 122.746094 140.773438 123.371094 140.496094 C 123.996094 140.222656 124.617188 139.925781 125.222656 139.609375 C 125.832031 139.296875 126.429688 138.964844 127.019531 138.613281 C 127.605469 138.261719 128.183594 137.890625 128.75 137.503906 C 129.3125 137.117188 129.867188 136.714844 130.40625 136.292969 C 130.949219 135.871094 131.476562 135.433594 131.988281 134.980469 C 132.503906 134.527344 133.003906 134.058594 133.488281 133.574219 C 133.972656 133.089844 134.441406 132.59375 134.894531 132.082031 C 135.347656 131.566406 135.789062 131.042969 136.210938 130.5 C 136.632812 129.960938 137.035156 129.410156 137.425781 128.84375 C 137.8125 128.28125 138.183594 127.703125 138.535156 127.117188 C 138.886719 126.527344 139.222656 125.929688 139.535156 125.324219 C 139.851562 124.714844 140.148438 124.097656 140.425781 123.472656 C 140.703125 122.84375 140.960938 122.210938 141.203125 121.570312 C 141.441406 120.925781 141.660156 120.277344 141.859375 119.621094 C 142.058594 118.96875 142.234375 118.304688 142.394531 117.640625 C 142.550781 116.972656 142.6875 116.300781 142.804688 115.628906 C 142.921875 114.953125 143.019531 114.273438 143.09375 113.59375 C 143.167969 112.914062 143.222656 112.230469 143.257812 111.546875 C 143.289062 110.863281 143.304688 110.175781 143.292969 109.492188 C 143.285156 108.808594 143.253906 108.121094 143.203125 107.441406 C 143.152344 106.757812 143.082031 106.074219 142.988281 105.398438 C 142.898438 104.71875 142.78125 104.042969 142.648438 103.371094 C 142.515625 102.699219 142.359375 102.03125 142.183594 101.371094 C 142.007812 100.707031 141.8125 100.050781 141.597656 99.402344 C 141.382812 98.75 141.148438 98.109375 140.890625 97.472656 C 140.636719 96.835938 140.363281 96.207031 140.070312 95.589844 C 139.773438 94.972656 139.460938 94.363281 139.132812 93.761719 C 138.800781 93.164062 138.449219 92.574219 138.082031 91.996094 C 137.714844 91.417969 137.332031 90.851562 136.929688 90.296875 C 136.527344 89.742188 136.109375 89.199219 135.671875 88.671875 C 135.238281 88.140625 134.785156 87.628906 134.316406 87.125 C 133.851562 86.625 133.367188 86.140625 132.871094 85.667969 C 132.375 85.195312 131.863281 84.742188 131.339844 84.300781 C 130.8125 83.859375 130.273438 83.4375 129.722656 83.03125 C 129.171875 82.625 128.609375 82.234375 128.035156 81.863281 C 127.460938 81.488281 126.875 81.136719 126.277344 80.800781 C 125.679688 80.464844 125.074219 80.144531 124.457031 79.847656 C 123.839844 79.546875 123.214844 79.269531 122.582031 79.007812 C 121.949219 78.746094 121.308594 78.507812 120.660156 78.285156 C 120.011719 78.0625 119.355469 77.863281 118.695312 77.683594 C 118.035156 77.5 117.367188 77.339844 116.699219 77.203125 C 116.027344 77.0625 115.351562 76.941406 114.675781 76.84375 C 113.996094 76.746094 113.316406 76.667969 112.632812 76.613281 C 111.949219 76.554688 111.265625 76.519531 110.582031 76.503906 C 109.898438 76.492188 109.210938 76.496094 108.527344 76.523438 C 107.84375 76.550781 107.160156 76.601562 106.480469 76.671875 C 105.796875 76.738281 105.117188 76.832031 104.441406 76.941406 C 103.765625 77.054688 103.09375 77.183594 102.425781 77.335938 C 101.757812 77.488281 101.097656 77.664062 100.441406 77.855469 C 99.78125 78.050781 99.132812 78.261719 98.488281 78.496094 C 97.84375 78.730469 97.207031 78.984375 96.578125 79.253906 C 95.949219 79.527344 95.332031 79.820312 94.71875 80.128906 C 94.109375 80.441406 93.507812 80.769531 92.917969 81.117188 C 92.328125 81.464844 91.75 81.832031 91.179688 82.214844 C 90.613281 82.597656 90.058594 82.996094 89.515625 83.414062 C 88.972656 83.832031 88.441406 84.265625 87.925781 84.714844 C 87.40625 85.164062 86.90625 85.628906 86.417969 86.109375 C 85.929688 86.589844 85.457031 87.085938 85 87.597656 C 84.542969 88.105469 84.101562 88.628906 83.675781 89.167969 C 83.25 89.703125 82.839844 90.253906 82.449219 90.816406 C 82.058594 91.378906 81.683594 91.949219 81.328125 92.535156 C 80.972656 93.121094 80.632812 93.71875 80.3125 94.324219 C 79.992188 94.929688 79.691406 95.542969 79.410156 96.167969 C 79.128906 96.792969 78.867188 97.425781 78.625 98.066406 C 78.378906 98.707031 78.15625 99.351562 77.953125 100.007812 C 77.75 100.660156 77.566406 101.320312 77.40625 101.988281 C 77.242188 102.652344 77.101562 103.324219 76.980469 103.996094 C 76.859375 104.671875 76.757812 105.347656 76.675781 106.027344 C 76.597656 106.710938 76.539062 107.390625 76.5 108.074219 C 76.464844 108.757812 76.445312 109.445312 76.449219 110.128906 C 76.453125 110.8125 76.480469 111.5 76.527344 112.183594 C 76.574219 112.863281 76.640625 113.546875 76.730469 114.226562 C 76.816406 114.90625 76.925781 115.582031 77.054688 116.253906 C 77.183594 116.925781 77.335938 117.59375 77.507812 118.257812 C 77.675781 118.921875 77.867188 119.578125 78.078125 120.230469 C 78.292969 120.882812 78.523438 121.527344 78.773438 122.164062 C 79.023438 122.800781 79.292969 123.429688 79.585938 124.050781 C 79.875 124.671875 80.183594 125.285156 80.507812 125.886719 C 80.835938 126.488281 81.183594 127.078125 81.546875 127.660156 C 81.910156 128.238281 82.289062 128.808594 82.6875 129.367188 L 83.925781 131.089844 L 81.722656 139.316406 Z M 90.234375 137.035156 " fill-opacity="1" fill-rule="nonzero"/><path fill="#20ab4b" d="M 109.863281 72.027344 C 108.128906 72.027344 106.40625 72.144531 104.6875 72.382812 C 102.972656 72.621094 101.277344 72.972656 99.609375 73.441406 C 97.941406 73.910156 96.3125 74.492188 94.722656 75.183594 C 93.132812 75.875 91.601562 76.675781 90.121094 77.578125 C 88.640625 78.480469 87.230469 79.480469 85.886719 80.578125 C 84.546875 81.671875 83.285156 82.855469 82.105469 84.125 C 80.925781 85.394531 79.835938 86.738281 78.839844 88.160156 C 77.847656 89.578125 76.953125 91.058594 76.160156 92.601562 C 75.367188 94.140625 74.683594 95.730469 74.109375 97.363281 C 73.535156 99 73.074219 100.667969 72.730469 102.367188 C 72.382812 104.0625 72.15625 105.777344 72.042969 107.507812 C 71.933594 109.238281 71.941406 110.96875 72.070312 112.695312 C 72.195312 114.425781 72.4375 116.136719 72.800781 117.832031 C 73.164062 119.527344 73.636719 121.1875 74.226562 122.820312 C 74.816406 124.449219 75.515625 126.03125 76.324219 127.566406 C 77.128906 129.097656 78.035156 130.570312 79.046875 131.980469 L 75.382812 145.660156 L 89.488281 141.878906 C 90.105469 142.273438 90.730469 142.648438 91.371094 143.007812 C 92.011719 143.363281 92.660156 143.703125 93.320312 144.023438 C 93.976562 144.339844 94.644531 144.640625 95.320312 144.921875 C 95.996094 145.203125 96.683594 145.464844 97.375 145.707031 C 98.066406 145.949219 98.761719 146.167969 99.464844 146.371094 C 100.171875 146.570312 100.878906 146.75 101.59375 146.910156 C 102.308594 147.070312 103.027344 147.210938 103.75 147.328125 C 104.472656 147.445312 105.199219 147.542969 105.929688 147.617188 C 106.65625 147.695312 107.386719 147.75 108.117188 147.785156 C 108.851562 147.816406 109.582031 147.828125 110.3125 147.820312 C 111.046875 147.8125 111.777344 147.78125 112.507812 147.730469 C 113.238281 147.679688 113.96875 147.609375 114.695312 147.515625 C 115.421875 147.421875 116.144531 147.308594 116.863281 147.171875 C 117.582031 147.035156 118.296875 146.878906 119.007812 146.703125 C 119.71875 146.527344 120.425781 146.328125 121.125 146.113281 C 121.824219 145.894531 122.515625 145.65625 123.203125 145.398438 C 123.886719 145.140625 124.5625 144.863281 125.234375 144.566406 C 125.902344 144.269531 126.5625 143.953125 127.214844 143.617188 C 127.867188 143.285156 128.507812 142.929688 129.136719 142.558594 C 129.765625 142.183594 130.386719 141.792969 130.996094 141.386719 C 131.601562 140.976562 132.199219 140.550781 132.78125 140.109375 C 133.363281 139.667969 133.933594 139.207031 134.492188 138.730469 C 135.046875 138.253906 135.589844 137.761719 136.117188 137.257812 C 136.648438 136.75 137.160156 136.226562 137.65625 135.6875 C 138.15625 135.152344 138.636719 134.601562 139.101562 134.035156 C 139.570312 133.472656 140.019531 132.894531 140.449219 132.300781 C 140.882812 131.710938 141.296875 131.109375 141.695312 130.492188 C 142.09375 129.878906 142.472656 129.25 142.832031 128.613281 C 143.195312 127.976562 143.535156 127.328125 143.859375 126.671875 C 144.183594 126.015625 144.488281 125.351562 144.773438 124.675781 C 145.058594 124 145.324219 123.320312 145.570312 122.628906 C 145.816406 121.9375 146.039062 121.242188 146.246094 120.539062 C 146.449219 119.835938 146.636719 119.128906 146.800781 118.414062 C 146.964844 117.699219 147.105469 116.980469 147.230469 116.261719 C 147.351562 115.539062 147.453125 114.8125 147.53125 114.085938 C 147.613281 113.355469 147.671875 112.628906 147.710938 111.894531 C 147.75 111.164062 147.765625 110.433594 147.761719 109.699219 C 147.757812 108.96875 147.730469 108.234375 147.683594 107.503906 C 147.636719 106.773438 147.570312 106.046875 147.480469 105.320312 C 147.390625 104.589844 147.28125 103.867188 147.152344 103.148438 C 147.019531 102.425781 146.867188 101.710938 146.695312 101 C 146.523438 100.289062 146.328125 99.582031 146.117188 98.878906 C 145.902344 98.179688 145.667969 97.484375 145.414062 96.800781 C 145.164062 96.113281 144.890625 95.433594 144.597656 94.761719 C 144.304688 94.089844 143.992188 93.429688 143.660156 92.773438 C 143.328125 92.121094 142.976562 91.480469 142.609375 90.847656 C 142.242188 90.214844 141.855469 89.59375 141.449219 88.980469 C 141.042969 88.371094 140.621094 87.773438 140.183594 87.1875 C 139.742188 86.601562 139.289062 86.027344 138.816406 85.46875 C 138.34375 84.910156 137.855469 84.363281 137.347656 83.832031 C 136.84375 83.300781 136.324219 82.785156 135.792969 82.285156 C 135.257812 81.785156 134.710938 81.296875 134.148438 80.828125 C 133.585938 80.359375 133.007812 79.90625 132.421875 79.472656 C 131.832031 79.035156 131.230469 78.617188 130.621094 78.214844 C 130.007812 77.816406 129.382812 77.433594 128.746094 77.066406 C 128.113281 76.703125 127.46875 76.355469 126.8125 76.027344 C 126.15625 75.699219 125.492188 75.390625 124.820312 75.105469 C 124.148438 74.816406 123.46875 74.546875 122.777344 74.296875 C 122.089844 74.046875 121.394531 73.816406 120.691406 73.605469 C 119.992188 73.398438 119.285156 73.210938 118.570312 73.042969 C 117.859375 72.871094 117.140625 72.726562 116.421875 72.597656 C 115.699219 72.472656 114.972656 72.367188 114.246094 72.28125 C 113.519531 72.195312 112.789062 72.132812 112.058594 72.089844 C 111.328125 72.046875 110.597656 72.027344 109.863281 72.027344 Z M 109.863281 72.027344 " fill-opacity="1" fill-rule="nonzero"/><path fill="#ffffff" d="M 131.34375 126.8125 C 132.039062 125.105469 132.386719 121.714844 130.613281 120.691406 C 129.292969 119.929688 127.710938 119.453125 126.3125 118.855469 C 124.71875 118.175781 123.121094 117.347656 121.476562 116.789062 C 119.160156 116.003906 117.691406 118.054688 116.191406 119.472656 C 115.867188 119.777344 115.179688 120.726562 114.679688 120.839844 C 114.054688 120.976562 113.085938 120.144531 112.566406 119.835938 C 111.59375 119.253906 110.652344 118.628906 109.734375 117.957031 C 106.867188 115.859375 104.367188 113.394531 102.230469 110.554688 C 101.199219 109.183594 100.03125 107.644531 99.339844 106.0625 C 98.878906 105.003906 99.511719 104.679688 100.226562 103.925781 C 101.675781 102.390625 103.894531 100.820312 103.125 98.460938 C 102.617188 96.902344 101.8125 95.382812 101.167969 93.875 C 100.53125 92.378906 99.992188 90.761719 99.226562 89.324219 C 98.222656 87.449219 95.488281 87.777344 93.800781 88.339844 C 93.015625 88.566406 92.304688 88.933594 91.664062 89.445312 C 90.652344 90.351562 89.828125 91.410156 89.195312 92.613281 C 86.949219 96.507812 87.664062 102.441406 89.816406 106.167969 C 92.851562 111.433594 95.582031 116.605469 100.019531 120.890625 C 104.355469 125.082031 109.808594 128.238281 115.199219 130.910156 C 117.746094 132.171875 120.664062 131.957031 123.429688 131.886719 C 126.261719 131.8125 130.214844 129.589844 131.34375 126.8125 Z M 131.34375 126.8125 " fill-opacity="1" fill-rule="nonzero"/></svg>